
<svg xmlns="http://www.w3.org/2000/svg" width="117.333" height="117.333" viewBox="0 0 117.333 117.333">
    <path id="Categories" d="M16,117.333a16,16,0,0,1-16-16V16A16,16,0,0,1,16,0h85.334a16,16,0,0,1,16,16v85.334a16,16,0,0,1-16,16Zm-5.333-16A5.339,5.339,0,0,0,16,106.667h85.334a5.339,5.339,0,0,0,5.333-5.333v-64h-96Zm0-85.334V26.667h96V16a5.339,5.339,0,0,0-5.333-5.333H16A5.339,5.339,0,0,0,10.667,16ZM48,90.667V80H90.667V90.667Zm-21.333,0V80H37.333V90.667ZM48,64V53.333H90.667V64ZM26.667,64V53.333H37.333V64Z" fill="#fff"/>
</svg>
