<svg xmlns="http://www.w3.org/2000/svg" width="125.921" height="118.333" viewBox="0 0 125.921 118.333">
    <path id="Home" d="M30.254,117.333a16.007,16.007,0,0,1-15.973-15.06l-.027-.94,0-45.163L7.175,62.613,0,54.72,58.667,1.387A5.335,5.335,0,0,1,65.312.963l.53.424L124.509,54.72l-7.176,7.893-7.082-6.442,0,45.163a16.006,16.006,0,0,1-15.06,15.972l-.94.027ZM24.917,46.475l0,54.859a5.331,5.331,0,0,0,4.712,5.3l.622.036h64a5.329,5.329,0,0,0,5.3-4.711l.036-.622,0-54.859L62.254,12.533ZM56.921,80V58.667H67.587V80Z" transform="translate(0.706 0.5)" fill="#fff" stroke="#fff" stroke-width="1"/>
</svg>
