<svg xmlns="http://www.w3.org/2000/svg" width="123.88" height="123.88" viewBox="0 0 123.88 123.88">
    <path id="Cart" d="M107.52,122.88a15.36,15.36,0,1,1,10.861-4.5A15.26,15.26,0,0,1,107.52,122.88Zm0-20.479a5.12,5.12,0,1,0,5.12,5.12A5.126,5.126,0,0,0,107.52,102.4ZM40.96,122.88a15.36,15.36,0,1,1,10.861-4.5A15.26,15.26,0,0,1,40.96,122.88Zm0-20.479a5.12,5.12,0,1,0,5.12,5.12A5.126,5.126,0,0,0,40.96,102.4ZM94.186,81.92H54.358A15.359,15.359,0,0,1,39.564,70.69l-.225-.912L28.316,18.335a10.306,10.306,0,0,0-9.168-8.06L18.3,10.24H0V0H18.3A20.471,20.471,0,0,1,38.087,15.188l.241,1,2.012,9.41h65.917a10.308,10.308,0,0,1,1.487.109l.734.135a10.241,10.241,0,0,1,7.913,11.466l-.138.752L109.18,69.892a15.361,15.361,0,0,1-14.061,12ZM42.537,35.84h0l6.815,31.793a5.117,5.117,0,0,0,4.411,4.012l.6.034H94.186a5.12,5.12,0,0,0,4.836-3.438l.162-.571,7.074-31.831H42.537Z" transform="translate(0.5 0.5)" fill="#fefefe" stroke="#fff" stroke-linecap="square" stroke-linejoin="bevel" stroke-width="1"/>
</svg>
