<svg xmlns="http://www.w3.org/2000/svg" width="32.903" height="32.903" viewBox="0 0 32.903 32.903">
    <circle id="Ellipse_47" data-name="Ellipse 47" cx="5.247" cy="5.247" r="5.247" transform="translate(11.495 11.779)" fill="none" stroke="#fff" stroke-linecap="round" stroke-miterlimit="10" stroke-width="3"/>
    <path id="Path_89" data-name="Path 89" d="M209.038,567.118h0a3.061,3.061,0,0,0,4.2,1.741h0a3.064,3.064,0,0,1,4.084,4.084h0a3.067,3.067,0,0,0,1.741,4.2h0a3.064,3.064,0,0,1,0,5.774h0a3.061,3.061,0,0,0-1.741,4.2h0a3.064,3.064,0,0,1-4.084,4.084h0a3.067,3.067,0,0,0-4.2,1.741h0a3.064,3.064,0,0,1-5.774,0h0a3.061,3.061,0,0,0-4.2-1.741h0a3.064,3.064,0,0,1-4.084-4.084h0a3.067,3.067,0,0,0-1.741-4.2h0a3.064,3.064,0,0,1,0-5.774h0a3.061,3.061,0,0,0,1.741-4.2h0a3.064,3.064,0,0,1,4.084-4.084h0a3.067,3.067,0,0,0,4.2-1.741h0A3.064,3.064,0,0,1,209.038,567.118Z" transform="translate(-189.7 -563.58)" fill="none" stroke="#fff" stroke-linecap="round" stroke-miterlimit="10" stroke-width="3"/>
</svg>
